<svg version="1.2" xmlns="http://www.w3.org/2000/svg" viewBox="0 0 400 400" width="400" height="400"><style>.a{fill:#615cee}</style><path class="a" d="m141.5 10.6c-1.1 0.9-13.6 21.5-27.7 46l-25.7 44.6-26.2 0.3-26.1 0.3-3 4.1c-5.3 6.9-28.1 47.9-28.1 50.3 0 2.1 5.7 12.3 36.2 65.1 8 13.7 14.5 25.7 14.5 26.6 0 1-4.8 10.1-10.6 20.3-6 10.3-11.5 20.4-12.5 22.8l-1.7 4 14.4 25.3c7.9 14 15.6 26.1 17.1 27.2 2.2 1.5 10.5 1.7 53.8 1.7 28.2-0.1 51.7 0.4 52.2 0.9 0.5 0.5 6.1 9.9 12.3 20.8 6.2 10.9 12.5 20.8 13.8 21.9 2.3 2 5.7 2.2 31.8 2.2 21.6-0.1 29.7-0.5 31.3-1.6 1.9-1.5 13.8-21.5 40.2-68.3 5.8-10.3 11.8-19.5 13.1-20.8 2.3-2 5.2-2.2 27.4-2.1l24.9 0.3 2.4-3.3c1.4-1.7 8.6-13.7 15.9-26.6 10.5-18.1 13.2-24 12.6-26.2-0.5-1.5-4.6-9.1-9.2-17.1-4.5-7.9-15.9-27.5-25.3-43.7l-17.1-29.4 12.6-21.9c9.4-16.2 12.5-22.6 12.1-25.1-0.8-5.5-28-51.4-31.5-53.1-2-0.9-19.1-1.3-53.8-1.2-32.7 0-51.1-0.4-51.6-1.1-0.4-0.7-6.1-10.5-12.5-21.8-7.4-13-12.8-20.9-14.6-21.6-4.3-2-58.5-1.9-61.4 0.2zm18.8 30.8c7 12.1 12.7 22.3 12.7 22.7 0 0.6-14 25.2-22.4 39.2l-3.5 5.9h105.6c64.1 0 105.8 0.5 105.8 1.1 0 0.7-5.8 11.2-12.8 23.3l-12.8 22h-101.8-101.7l-15.3-26.6c-8.4-14.6-15.4-27.3-15.4-28.2 0-0.9 10.4-19.5 23-41.4 12.8-21.9 23.4-40.4 23.7-40.9 1-1.6 1.3-1 14.9 22.9zm-39.9 115c14.9 25.9 28.4 49.1 29.8 51.5 1.5 2.6 6.8 11.8 11.9 20.7 5 8.8 14.3 25 20.6 35.8 6.3 10.7 11.3 20.2 11 21-0.2 0.9-7.3 13.6-15.8 28.3l-15.3 26.9h-48c-26.4 0-48-0.4-48-1 0-0.5 5.8-10.9 12.9-23.2l12.9-22.2 26-0.4c14.3-0.1 26.1-0.6 26.1-1 0-0.7-6.4-12-24.1-42.5-7-11.9-26.7-46.2-43.9-76.1-17.2-30-32.7-56.4-34.2-58.9-1.6-2.5-2.5-5-2.1-5.3 0.5-0.4 12.5-0.8 27-0.8h26.1zm226 23.2c4.5 7.9 15.1 26.6 23.6 41.3 8.6 14.7 15.3 27.1 14.9 27.4-0.4 0.3-12.3 0.7-26.4 0.8l-25.7 0.1-2.4-3.5c-1.3-1.8-7.3-12.2-13.4-22.8-6.1-10.7-11.4-19.1-11.9-18.6-0.4 0.5-1.9 2.8-3.2 5.2-1.4 2.3-4.4 7.7-6.7 11.7-15.1 26.1-66.9 115.8-79.8 138.4-8.5 14.8-16 26.4-16.6 25.9-1.7-1.8-25.8-44.1-25.8-45.5 0-0.7 5.3-10.4 11.7-21.4 6.4-11.1 11.8-20.5 11.8-20.8 0-0.2 2.1-4.1 4.7-8.3 5.2-8.3 6.6-10.7 30.8-52.8 8.9-15.3 21.7-37.7 28.7-49.8l12.7-21.9h32.3l32.4 0.1z"/></svg>