<svg version="1.2" xmlns="http://www.w3.org/2000/svg" viewBox="0 0 58 44" width="58" height="44"><style>.a{fill:#f43838}</style><path class="a" d="m57.3 3.6c-0.6-0.3-0.9 0.3-1.3 0.6-0.1 0.1-0.2 0.2-0.3 0.3-0.9 1-1.9 1.7-3.3 1.6-2-0.1-3.7 0.5-5.2 2.1-0.4-2-1.4-3.1-3-3.8-0.9-0.4-1.7-0.8-2.3-1.6-0.4-0.6-0.6-1.3-0.8-1.9-0.1-0.4-0.2-0.8-0.7-0.9-0.5-0.1-0.6 0.3-0.8 0.7-0.8 1.4-1.1 3-1.1 4.5 0.1 3.5 1.6 6.4 4.5 8.3 0.3 0.3 0.4 0.5 0.3 0.8-0.2 0.7-0.4 1.4-0.7 2.1-0.1 0.4-0.3 0.5-0.7 0.3-1.6-0.7-3-1.7-4.2-2.9-2.1-2-4-4.3-6.3-6q-0.8-0.6-1.7-1.2c-2.3-2.3 0.4-4.2 1-4.5 0.6-0.2 0.2-1-1.9-1-2.1 0-4 0.7-6.5 1.7q-0.5 0.2-1.1 0.3-3.3-0.7-6.9-0.3c-4.6 0.6-8.2 2.7-10.9 6.5-3.2 4.5-3.9 9.6-3 14.9 0.9 5.6 3.8 10.3 8.1 13.9 4.5 3.7 9.6 5.6 15.5 5.2 3.6-0.2 7.6-0.7 12-4.5 1.2 0.5 2.4 0.8 4.3 0.9 1.5 0.2 3 0 4.1-0.3 1.8-0.4 1.7-2 1-2.3-5.1-2.5-4-1.5-5.1-2.3 2.7-3.2 6.7-6.5 8.2-17.2 0.1-0.9 0.1-1.4 0-2.1 0-0.4 0.1-0.6 0.6-0.6 1.3-0.2 2.5-0.5 3.7-1.2 3.4-1.9 4.7-4.9 5-8.6 0.1-0.6 0-1.2-0.5-1.5zm-29.4 33.2c-5-4-7.4-5.3-8.5-5.3-0.9 0.1-0.7 1.2-0.5 1.9 0.2 0.7 0.5 1.2 0.9 1.8 0.2 0.4 0.4 1.1-0.3 1.5-1.6 1-4.4-0.3-4.6-0.4-3.3-2-6-4.6-7.9-8.1-1.9-3.5-3-7.1-3.2-11 0-1 0.3-1.3 1.2-1.5 1.2-0.2 2.5-0.3 3.7-0.1 5.1 0.8 9.5 3.1 13.2 6.8 2.1 2.1 3.6 4.7 5.3 7.1 1.7 2.6 3.6 5.1 5.9 7.2 0.9 0.7 1.6 1.2 2.2 1.6-1.9 0.3-5.2 0.3-7.4-1.5zm9.9-11.9c-0.4 0.2-0.9 0.4-1.4 0.4-0.7 0.1-1.5-0.2-1.9-0.6-0.7-0.6-1.1-0.9-1.3-1.9-0.1-0.4-0.1-1 0-1.4 0.2-0.8 0-1.3-0.6-1.8-0.4-0.4-1-0.5-1.6-0.5-0.3 0-0.5-0.1-0.6-0.2-0.3-0.1-0.5-0.4-0.3-0.8 0-0.2 0.4-0.5 0.4-0.6 0.9-0.5 1.9-0.3 2.8 0.1 0.9 0.3 1.5 1 2.4 1.9 1 1.1 1.1 1.4 1.7 2.2 0.4 0.7 0.8 1.4 1 2.1 0.2 0.5 0 0.9-0.6 1.1zm-7.5-3.9c0-0.4 0.4-0.7 0.8-0.7q0.1 0 0.2 0 0.2 0.1 0.3 0.2 0.2 0.2 0.2 0.5c0 0.4-0.3 0.8-0.7 0.8-0.4 0-0.8-0.4-0.8-0.8z"/></svg>